<?xml version="1.0" encoding="UTF-8" standalone="no"?>
<!-- Created with Inkscape (http://www.inkscape.org/) -->

<svg
   xmlns:dc="http://purl.org/dc/elements/1.1/"
   xmlns:cc="http://creativecommons.org/ns#"
   xmlns:rdf="http://www.w3.org/1999/02/22-rdf-syntax-ns#"
   xmlns:svg="http://www.w3.org/2000/svg"
   xmlns="http://www.w3.org/2000/svg"
   xmlns:xlink="http://www.w3.org/1999/xlink"
   xmlns:sodipodi="http://sodipodi.sourceforge.net/DTD/sodipodi-0.dtd"
   xmlns:inkscape="http://www.inkscape.org/namespaces/inkscape"
   width="210mm"
   height="297mm"
   viewBox="0 0 210 297"
   version="1.1"
   id="svg8"
   inkscape:version="0.92.4 (5da689c313, 2019-01-14)"
   sodipodi:docname="Head.svg">
  <defs
     id="defs2">
    <linearGradient
       inkscape:collect="always"
       id="linearGradient4619">
      <stop
         style="stop-color:#ffb380;stop-opacity:1"
         offset="0"
         id="stop4615" />
      <stop
         style="stop-color:#ff9955;stop-opacity:1"
         offset="1"
         id="stop4617" />
    </linearGradient>
    <linearGradient
       inkscape:collect="always"
       xlink:href="#linearGradient4619"
       id="linearGradient4621-5"
       x1="107.31792"
       y1="145.41551"
       x2="103.70547"
       y2="148.0276"
       gradientUnits="userSpaceOnUse"
       gradientTransform="matrix(3.4328002,0,0,3.01992,-255.71883,-317.29253)" />
  </defs>
  <sodipodi:namedview
     id="base"
     pagecolor="#ffffff"
     bordercolor="#666666"
     borderopacity="1.0"
     inkscape:pageopacity="0.0"
     inkscape:pageshadow="2"
     inkscape:zoom="0.5"
     inkscape:cx="272.56086"
     inkscape:cy="627.13263"
     inkscape:document-units="mm"
     inkscape:current-layer="layer1"
     showgrid="false"
     inkscape:snap-bbox="true"
     inkscape:snap-text-baseline="false"
     inkscape:window-width="1600"
     inkscape:window-height="837"
     inkscape:window-x="-8"
     inkscape:window-y="-8"
     inkscape:window-maximized="1" />
  <metadata
     id="metadata5">
    <rdf:RDF>
      <cc:Work
         rdf:about="">
        <dc:format>image/svg+xml</dc:format>
        <dc:type
           rdf:resource="http://purl.org/dc/dcmitype/StillImage" />
        <dc:title></dc:title>
      </cc:Work>
    </rdf:RDF>
  </metadata>
  <g
     inkscape:label="Layer 1"
     inkscape:groupmode="layer"
     id="layer1">
    <g
       id="g4900">
      <path
         class="fil9"
         d="m 95.223587,138.42579 v -10.6175 h 9.133023 v 11.5023 c -3.27672,0.63197 -6.274583,1.1376 -9.133023,-0.75839 z"
         id="path33-2"
         inkscape:connector-curvature="0"
         style="clip-rule:evenodd;fill:#d58855;fill-opacity:1;fill-rule:nonzero;stroke-width:0.09387366;image-rendering:optimizeQuality;shape-rendering:geometricPrecision;text-rendering:geometricPrecision" />
      <path
         sodipodi:nodetypes="cccccccccc"
         class="fil4"
         d="m 112.72824,128.99025 c -1.74379,4.372 -5.5507,4.96155 -5.5507,4.96155 l -3.13879,0.30682 c -1.74376,-0.30682 -4.708163,-1.15053 -4.708163,-1.15053 -6.80072,-2.60788 -7.70197,-2.12361 -8.83541,-5.42178 0,-0.0767 -3.31317,-16.95108 -3.31317,-16.95108 -0.0872,-8.66732 10.28824,-9.66444 11.85762,-9.81785 1.569413,-0.23012 11.508883,-1.840827 13.601413,6.59638 0,0 3.31317,9.81782 0.0872,21.55319 z"
         id="path49-7"
         inkscape:connector-curvature="0"
         style="clip-rule:evenodd;fill:url(#linearGradient4621-5);fill-opacity:1;fill-rule:nonzero;stroke-width:0.08177722;image-rendering:optimizeQuality;shape-rendering:geometricPrecision;text-rendering:geometricPrecision" />
      <path
         sodipodi:nodetypes="cccccccccc"
         class="fil11"
         d="m 89.612987,121.27302 c 1.67672,0.30769 1.54036,1.52092 1.54036,1.52092 l 4.07024,5.01435 c -0.94316,-4.69195 -2.57151,-12.91939 -2.57151,-12.91939 0,0 -0.41922,-2.53825 2.2007,-3.99966 l -7.44055,-4.76887 c 0,0 -3.9822,2.30751 -3.14383,9.69155 0,0 0.73357,12.15288 7.23091,13.76814 z"
         id="path51-2"
         inkscape:connector-curvature="0"
         style="clip-rule:evenodd;fill:#9b5837;fill-rule:nonzero;stroke-width:0.08978073;image-rendering:optimizeQuality;shape-rendering:geometricPrecision;text-rendering:geometricPrecision" />
      <path
         class="fil32"
         d="m 84.361227,101.48327 c 1.23196,-0.71991 3.18858,-1.36783 4.49301,-1.22385 0.72466,0.072 0.72466,0.43195 1.52182,0.14399 0.21741,-0.072 1.3044,-0.791897 1.52181,-1.007867 1.01455,-0.8639 0.65222,-2.23173 1.73924,-3.09562 0.8696,-0.71992 2.02908,-0.71992 3.1161,-0.64792 2.53636,0.14399 4.275603,2.15973 6.667013,2.73566 4.05821,0.93589 11.16002,-2.51969 12.68184,3.239597 1.23196,4.67943 -1.59429,10.72669 -6.88443,10.00678 -2.17403,-0.28796 -4.56545,-1.22385 -6.52207,0 -1.23195,0.71991 -2.17403,1.51181 -3.768323,1.29584 -1.3769,-0.21599 -2.39144,-1.00788 -3.91326,-1.15186 -2.17403,-0.14399 -3.26105,-1.87177 -5.36261,-0.57593 -1.01454,0.64792 -2.24647,1.36783 -3.62338,1.36783 -1.52181,0 -1.66676,-0.14399 -2.17403,-1.65579 -0.36233,-1.07987 -0.57974,-2.30372 -0.94207,-3.45558 -0.72469,-2.37571 -1.01455,-4.53544 1.44934,-5.97527 z"
         id="path193-6"
         inkscape:connector-curvature="0"
         style="clip-rule:evenodd;fill:#9b5837;fill-opacity:1;fill-rule:nonzero;stroke-width:0.07222902;image-rendering:optimizeQuality;shape-rendering:geometricPrecision;text-rendering:geometricPrecision" />
    </g>
  </g>
</svg>
