<?xml version="1.0" encoding="UTF-8" standalone="no"?>
<!-- Created with Inkscape (http://www.inkscape.org/) -->

<svg
   xmlns:dc="http://purl.org/dc/elements/1.1/"
   xmlns:cc="http://creativecommons.org/ns#"
   xmlns:rdf="http://www.w3.org/1999/02/22-rdf-syntax-ns#"
   xmlns:svg="http://www.w3.org/2000/svg"
   xmlns="http://www.w3.org/2000/svg"
   xmlns:sodipodi="http://sodipodi.sourceforge.net/DTD/sodipodi-0.dtd"
   xmlns:inkscape="http://www.inkscape.org/namespaces/inkscape"
   width="210mm"
   height="297mm"
   viewBox="0 0 210 297"
   version="1.1"
   id="svg8"
   inkscape:version="0.92.4 (5da689c313, 2019-01-14)"
   sodipodi:docname="right_hand.svg">
  <defs
     id="defs2" />
  <sodipodi:namedview
     id="base"
     pagecolor="#ffffff"
     bordercolor="#666666"
     borderopacity="1.0"
     inkscape:pageopacity="0.0"
     inkscape:pageshadow="2"
     inkscape:zoom="0.25"
     inkscape:cx="713.1104"
     inkscape:cy="289.80774"
     inkscape:document-units="mm"
     inkscape:current-layer="layer1"
     showgrid="false"
     inkscape:snap-bbox="true"
     inkscape:snap-text-baseline="false"
     inkscape:window-width="1600"
     inkscape:window-height="837"
     inkscape:window-x="-8"
     inkscape:window-y="-8"
     inkscape:window-maximized="1" />
  <metadata
     id="metadata5">
    <rdf:RDF>
      <cc:Work
         rdf:about="">
        <dc:format>image/svg+xml</dc:format>
        <dc:type
           rdf:resource="http://purl.org/dc/dcmitype/StillImage" />
        <dc:title></dc:title>
      </cc:Work>
    </rdf:RDF>
  </metadata>
  <g
     inkscape:label="Layer 1"
     inkscape:groupmode="layer"
     id="layer1">
    <path
       style="clip-rule:evenodd;fill:#ff9b58;fill-opacity:1;fill-rule:nonzero;stroke-width:0.05818262;image-rendering:optimizeQuality;shape-rendering:geometricPrecision;text-rendering:geometricPrecision"
       inkscape:connector-curvature="0"
       id="path177-9-1-7"
       d="m 115.95774,147.69797 c 0,0 -10.246,-18.03081 -12.49243,-34.52513 l -7.748135,0.37756 c 0,0 2.33414,14.85995 16.051695,34.31629 z"
       class="fil2" />
    <path
       style="clip-rule:evenodd;fill:#ff9b58;fill-opacity:1;fill-rule:nonzero;stroke-width:0.07407919;image-rendering:optimizeQuality;shape-rendering:geometricPrecision;text-rendering:geometricPrecision"
       inkscape:connector-curvature="0"
       id="path181-1-3"
       d="m 117.34954,148.72408 1.35446,2.28125 c 2.33263,-0.43078 0.24732,-3.12051 0.24732,-3.12051 0,0 -3.06079,-3.34005 -7.37402,-1.86121 -1.44968,0.45122 -0.62304,3.64633 -0.62304,3.64633 0.61759,1.23868 2.07042,2.94419 2.07042,2.94419 0.73388,0.72554 1.69731,0.10766 1.69731,0.10766 1.01129,0.77544 1.5571,-0.0758 1.5571,-0.0758 1.21708,0.57509 1.39897,-0.32189 1.39897,-0.32189 1.49452,0.62505 1.6734,-0.58897 1.6734,-0.58897 l -2.01977,-3.07359 z"
       class="fil2" />
  </g>
</svg>
